<?xml version="1.0" encoding="utf-8"?>
<!-- Generator: Adobe Illustrator 16.0.0, SVG Export Plug-In . SVG Version: 6.00 Build 0)  -->
<!DOCTYPE svg PUBLIC "-//W3C//DTD SVG 1.1//EN" "http://www.w3.org/Graphics/SVG/1.1/DTD/svg11.dtd">
<svg version="1.1" id="Layer_1" xmlns="http://www.w3.org/2000/svg" xmlns:xlink="http://www.w3.org/1999/xlink" x="0px" y="0px"
	 width="375px" height="375px" viewBox="0 0 375 375" enable-background="new 0 0 375 375" xml:space="preserve">
<g>
	<path fill="#FFFFFF" d="M314.937,118.111c-1.227,0-2.463-0.309-3.598-0.966L208.983,58.127c-3.452-1.991-4.64-6.409-2.65-9.865
		c1.991-3.458,6.402-4.642,9.855-2.655l102.356,59.017c3.452,1.991,4.64,6.409,2.65,9.865
		C319.86,116.813,317.432,118.111,314.937,118.111z"/>
	<path fill="#FFFFFF" d="M375,187.501c0-2.623-1.398-5.056-3.676-6.356l-55.73-32.044l55.73-32.039
		c2.277-1.309,3.676-3.733,3.676-6.356c0-2.63-1.398-5.054-3.676-6.358L191.515,0.973c-2.257-1.295-5.024-1.295-7.283-0.004
		L3.685,104.339C1.408,105.643,0,108.067,0,110.706c0,2.627,1.408,5.051,3.685,6.365l55.95,32.029l-55.95,32.035
		C1.408,182.44,0,184.871,0,187.501c0,2.629,1.408,5.061,3.685,6.363l55.95,32.03l-55.95,32.036C1.408,259.24,0,261.664,0,264.292
		c0,2.639,1.408,5.063,3.685,6.367l180.546,103.375c1.122,0.643,2.38,0.966,3.635,0.966c1.259,0,2.52-0.323,3.648-0.976
		l179.81-103.374c2.277-1.303,3.676-3.729,3.676-6.358c0-2.621-1.398-5.047-3.676-6.356l-55.73-32.043l55.73-32.035
		C373.602,192.554,375,190.121,375,187.501z M22.076,110.706l165.781-94.924l165.113,94.924l-165.113,94.913L22.076,110.706z
		 M352.97,264.292l-165.113,94.924L22.076,264.292l52.309-29.953l109.847,62.898c1.122,0.643,2.38,0.968,3.635,0.968
		c1.259,0,2.52-0.325,3.648-0.973l109.364-62.88L352.97,264.292z M187.857,282.42L22.076,187.501l52.309-29.958l109.847,62.895
		c1.122,0.643,2.38,0.968,3.635,0.968c1.259,0,2.52-0.325,3.648-0.977l109.364-62.869l52.091,29.942L187.857,282.42z"/>
	<path fill="#FFFFFF" d="M188.063,45.821c-4.044,0-7.327-3.282-7.327-7.333c0-4.049,3.275-7.329,7.322-7.329h0.004
		c4.047,0,7.324,3.28,7.324,7.329C195.387,42.538,192.11,45.821,188.063,45.821z"/>
</g>
</svg>
