<svg height="496pt" viewBox="0 0 496 496" width="496pt" xmlns="http://www.w3.org/2000/svg"><g fill="#231f20"><path d="m208 280c0 22.089844 17.910156 40 40 40s40-17.910156 40-40-17.910156-40-40-40c-22.082031.027344-39.972656 17.917969-40 40zm64 0c0 13.253906-10.746094 24-24 24s-24-10.746094-24-24 10.746094-24 24-24 24 10.746094 24 24zm0 0"/><path d="m248 328c-4.417969 0-8 3.582031-8 8v8c0 4.417969 3.582031 8 8 8s8-3.582031 8-8v-8c0-4.417969-3.582031-8-8-8zm0 0"/><path d="m255.289062 68.710938c-1.296874-2.859376-4.148437-4.699219-7.289062-4.699219s-5.992188 1.839843-7.289062 4.699219l-112 248c-1.152344 2.558593-.882813 5.535156.714843 7.839843l63.300781 91.449219h-8.726562c-4.417969 0-8 3.582031-8 8v24h-16c-4.417969 0-8 3.582031-8 8v32c0 4.417969 3.582031 8 8 8h176c4.417969 0 8-3.582031 8-8v-32c0-4.417969-3.582031-8-8-8h-16v-24c0-4.417969-3.582031-8-8-8h-1.679688l56.496094-91.808594c1.386719-2.261718 1.5625-5.0625.472656-7.480468zm72.710938 411.289062h-160v-16h160zm-136-32v-16h112v16zm99.527344-32h-35.527344v-48c0-4.417969-3.582031-8-8-8s-8 3.582031-8 8v48h-27.808594l-67.039062-96.800781 102.847656-227.757813 102.960938 228zm0 0"/><path d="m488 240h-8.199219c-4.144531-117.359375-98.578125-218.992188-207.800781-223.769531v-8.230469c0-4.417969-3.582031-8-8-8h-32c-4.417969 0-8 3.582031-8 8v8.230469c-109.222656 4.777343-203.65625 106.410156-207.800781 223.769531h-8.199219c-4.417969 0-8 3.582031-8 8v32c0 4.417969 3.582031 8 8 8h32c4.417969 0 8-3.582031 8-8v-32c0-4.417969-3.582031-8-8-8h-7.800781c4.097656-108.800781 91.089843-202.992188 191.800781-207.769531v7.769531c0 4.417969 3.582031 8 8 8h32c4.417969 0 8-3.582031 8-8v-7.769531c100.710938 4.777343 187.703125 98.96875 191.800781 207.769531h-7.800781c-4.417969 0-8 3.582031-8 8v32c0 4.417969 3.582031 8 8 8h32c4.417969 0 8-3.582031 8-8v-32c0-4.417969-3.582031-8-8-8zm-456 32h-16v-16h16zm224-240h-16v-16h16zm224 240h-16v-16h16zm0 0"/></g></svg>