<?xml version="1.0" encoding="utf-8"?>
<!-- Generator: Adobe Illustrator 16.0.0, SVG Export Plug-In . SVG Version: 6.00 Build 0)  -->
<!DOCTYPE svg PUBLIC "-//W3C//DTD SVG 1.1//EN" "http://www.w3.org/Graphics/SVG/1.1/DTD/svg11.dtd">
<svg version="1.1" id="Layer_1" xmlns="http://www.w3.org/2000/svg" xmlns:xlink="http://www.w3.org/1999/xlink" x="0px" y="0px"
	 width="496px" height="496px" viewBox="0 0 496 496" enable-background="new 0 0 496 496" xml:space="preserve">
<g>
	<path fill="#FFFFFF" d="M208,280c0,22.09,17.91,40,40,40s40-17.91,40-40s-17.91-40-40-40C225.918,240.027,208.028,257.918,208,280z
		 M272,280c0,13.254-10.746,24-24,24s-24-10.746-24-24s10.746-24,24-24S272,266.746,272,280z"/>
	<path fill="#FFFFFF" d="M248,328c-4.418,0-8,3.582-8,8v8c0,4.418,3.582,8,8,8s8-3.582,8-8v-8C256,331.582,252.418,328,248,328z"/>
	<path fill="#FFFFFF" d="M255.289,68.711c-1.297-2.859-4.148-4.699-7.289-4.699s-5.992,1.84-7.289,4.699l-112,248
		c-1.152,2.559-0.883,5.535,0.715,7.84L192.727,416H184c-4.418,0-8,3.582-8,8v24h-16c-4.418,0-8,3.582-8,8v32c0,4.418,3.582,8,8,8
		h176c4.418,0,8-3.582,8-8v-32c0-4.418-3.582-8-8-8h-16v-24c0-4.418-3.582-8-8-8h-1.68l56.496-91.809
		c1.387-2.262,1.563-5.063,0.473-7.48L255.289,68.711z M328,480H168v-16h160V480z M192,448v-16h112v16H192z M291.528,416H256v-48
		c0-4.418-3.582-8-8-8s-8,3.582-8,8v48h-27.809l-67.039-96.801L248,91.441l102.961,228L291.528,416z"/>
	<path fill="#FFFFFF" d="M488,240h-8.199C475.656,122.64,381.223,21.008,272,16.23V8c0-4.418-3.582-8-8-8h-32c-4.418,0-8,3.582-8,8
		v8.23C114.778,21.008,20.344,122.64,16.199,240H8c-4.418,0-8,3.582-8,8v32c0,4.418,3.582,8,8,8h32c4.418,0,8-3.582,8-8v-32
		c0-4.418-3.582-8-8-8h-7.801C36.297,131.199,123.289,37.008,224,32.23V40c0,4.418,3.582,8,8,8h32c4.418,0,8-3.582,8-8v-7.77
		C372.711,37.008,459.703,131.199,463.801,240H456c-4.418,0-8,3.582-8,8v32c0,4.418,3.582,8,8,8h32c4.418,0,8-3.582,8-8v-32
		C496,243.582,492.418,240,488,240z M32,272H16v-16h16V272z M256,32h-16V16h16V32z M480,272h-16v-16h16V272z"/>
</g>
</svg>
