<svg height="682.66669pt" viewBox="-21 -21 682.66669 682.66669" width="682.66669pt" xmlns="http://www.w3.org/2000/svg"><path d="m537.492188 201.574219c-2.09375 0-4.203126-.527344-6.140626-1.648438l-174.6875-100.722656c-5.890624-3.398437-7.917968-10.9375-4.523437-16.835937 3.398437-5.902344 10.925781-7.921876 16.820313-4.53125l174.6875 100.722656c5.890624 3.398437 7.917968 10.9375 4.523437 16.835937-2.277344 3.964844-6.421875 6.179688-10.679687 6.179688zm0 0"/><path d="m640 320c0-4.476562-2.386719-8.628906-6.273438-10.847656l-95.113281-54.6875 95.113281-54.679688c3.886719-2.234375 6.273438-6.371094 6.273438-10.847656 0-4.488281-2.386719-8.625-6.273438-10.851562l-306.875-176.425782c-3.851562-2.210937-8.574218-2.210937-12.429687-.007812l-308.132813 176.417968c-3.886718 2.226563-6.289062 6.363282-6.289062 10.867188 0 4.484375 2.402344 8.621094 6.289062 10.863281l95.488282 54.664063-95.488282 54.671875c-3.886718 2.226562-6.289062 6.375-6.289062 10.863281s2.402344 8.636719 6.289062 10.859375l95.488282 54.664063-95.488282 54.675781c-3.886718 2.238281-6.289062 6.375-6.289062 10.859375 0 4.503906 2.402344 8.640625 6.289062 10.867187l308.132813 176.425781c1.914063 1.097657 4.0625 1.648438 6.203125 1.648438 2.148438 0 4.300781-.550781 6.226562-1.664062l306.875-176.425782c3.886719-2.222656 6.273438-6.363281 6.273438-10.851562 0-4.472656-2.386719-8.613282-6.273438-10.847656l-95.113281-54.6875 95.113281-54.671876c3.886719-2.226562 6.273438-6.378906 6.273438-10.851562zm-602.324219-131.0625 282.933594-162.003906 281.792969 162.003906-281.792969 161.984375zm564.726563 262.121094-281.792969 162.003906-282.933594-162.003906 89.273438-51.121094 187.472656 107.347656c1.914063 1.097656 4.0625 1.652344 6.203125 1.652344 2.148438 0 4.300781-.554688 6.226562-1.660156l186.648438-107.316406zm-281.792969 30.9375-282.933594-161.996094 89.273438-51.128906 187.472656 107.339844c1.914063 1.097656 4.0625 1.652343 6.203125 1.652343 2.148438 0 4.300781-.554687 6.226562-1.667969l186.648438-107.296874 88.902344 51.101562zm0 0"/><path d="m320.960938 78.199219c-6.902344 0-12.503907-5.601563-12.503907-12.515625 0-6.910156 5.589844-12.507813 12.496094-12.507813h.007813c6.90625 0 12.5 5.597657 12.5 12.507813 0 6.914062-5.59375 12.515625-12.5 12.515625zm0 0"/></svg>