<?xml version="1.0" encoding="utf-8"?>
<!-- Generator: Adobe Illustrator 16.0.0, SVG Export Plug-In . SVG Version: 6.00 Build 0)  -->
<!DOCTYPE svg PUBLIC "-//W3C//DTD SVG 1.1//EN" "http://www.w3.org/Graphics/SVG/1.1/DTD/svg11.dtd">
<svg version="1.1" id="Layer_1" xmlns="http://www.w3.org/2000/svg" xmlns:xlink="http://www.w3.org/1999/xlink" x="0px" y="0px"
	 width="312.667px" height="99px" viewBox="0 0 312.667 99" enable-background="new 0 0 312.667 99" xml:space="preserve">
<polyline fill-rule="evenodd" clip-rule="evenodd" fill="#E32A91" points="5.26,75.922 12.658,82.99 46.684,48.964 40.438,42.881 
	14.302,69.183 14.302,15.594 35.342,36.635 41.26,30.553 14.466,3.43 5.425,12.471 5.26,75.922 "/>
<path fill-rule="evenodd" clip-rule="evenodd" fill="#A03F97" d="M40.603,42.717L77.917,5.238l7.397,7.562v64.273l-8.219,8.383
	L55.725,64.087v31.396l-8.876-8.547l0.164-27.123l8.384-8.549l21.041,21.041V19.375L46.849,48.964L40.603,42.717z"/>
<g>
	<path fill="#FFFFFF" d="M108.711,38.856c-1.148,0-2.168,0.234-3.059,0.703s-1.635,1.137-2.232,2.004s-1.052,1.91-1.362,3.129
		s-0.466,2.572-0.466,4.061s0.167,2.851,0.501,4.087s0.809,2.3,1.424,3.19s1.374,1.582,2.276,2.074s1.916,0.738,3.041,0.738
		c0.785,0,1.5-0.126,2.145-0.378s1.23-0.606,1.758-1.063s0.996-0.999,1.406-1.626s0.773-1.321,1.09-2.083l2.25,1.371
		c-0.363,0.926-0.814,1.787-1.354,2.584s-1.172,1.488-1.898,2.074s-1.547,1.046-2.461,1.38s-1.939,0.501-3.076,0.501
		c-1.641,0-3.079-0.319-4.315-0.958s-2.268-1.529-3.094-2.672s-1.447-2.499-1.863-4.069s-0.624-3.287-0.624-5.15
		c0-1.934,0.22-3.68,0.659-5.238s1.078-2.886,1.916-3.981s1.872-1.939,3.103-2.531s2.631-0.888,4.201-0.888
		c2.156,0,3.961,0.516,5.414,1.547s2.52,2.561,3.199,4.588l-2.602,1.055c-0.188-0.586-0.445-1.146-0.773-1.679
		s-0.738-1.005-1.23-1.415s-1.066-0.738-1.723-0.984S109.555,38.856,108.711,38.856z"/>
	<path fill="#FFFFFF" d="M135.377,61.251l-5.273-10.283h-6.328v10.283h-2.742V36.483h9.545c1.148,0,2.168,0.161,3.059,0.483
		s1.638,0.788,2.241,1.397s1.063,1.354,1.38,2.232s0.475,1.869,0.475,2.971c0,0.785-0.094,1.559-0.281,2.32
		s-0.483,1.459-0.888,2.092s-0.917,1.178-1.538,1.635s-1.371,0.779-2.25,0.967l5.766,10.67H135.377z M134.973,43.603
		c0-0.75-0.105-1.4-0.316-1.951s-0.519-1.011-0.923-1.38s-0.894-0.645-1.468-0.826s-1.23-0.272-1.969-0.272h-6.521v9.141h6.645
		c0.785,0,1.468-0.12,2.048-0.36s1.055-0.571,1.424-0.993s0.642-0.92,0.817-1.494S134.973,44.271,134.973,43.603z"/>
	<path fill="#FFFFFF" d="M142.338,61.251V36.483h15.398v2.742h-12.656v7.945h11.795v2.707h-11.795v8.631h13.254v2.742H142.338z"/>
	<path fill="#FFFFFF" d="M176.422,61.251l-2.274-7.242h-9.37l-2.27,7.242h-2.855l7.819-24.768h3.606l7.823,24.768H176.422z
		 M170.751,43.193c-0.155-0.469-0.305-0.944-0.447-1.425l-0.411-1.308l-0.305-0.973c-0.073-0.257-0.109-0.415-0.109-0.474
		c-0.028,0.058-0.08,0.218-0.156,0.481c-0.076,0.263-0.177,0.589-0.302,0.979l-0.416,1.326l-0.441,1.41l-2.564,8.179h7.727
		L170.751,43.193z"/>
	<path fill="#FFFFFF" d="M187.497,39.226v22.025h-2.725V39.226h-6.979v-2.742h16.682v2.742H187.497z"/>
	<path fill="#FFFFFF" d="M197.885,61.251V36.483h2.76v24.768H197.885z"/>
	<path fill="#FFFFFF" d="M214.637,61.251h-3.309l-7.836-24.768h2.892l5.488,17.485l0.484,1.544l0.442,1.409l0.432,1.376l0.369-1.371
		l0.387-1.389l0.457-1.617l5.59-17.438h2.9L214.637,61.251z"/>
	<path fill="#FFFFFF" d="M225.483,61.251V36.483h15.398v2.742h-12.656v7.945h11.795v2.707h-11.795v8.631h13.254v2.742H225.483z"/>
	<path fill="#FFFFFF" d="M261.43,44.323c0,1.066-0.146,2.095-0.439,3.085s-0.744,1.866-1.354,2.628s-1.38,1.368-2.312,1.819
		s-2.036,0.677-3.313,0.677h-5.045v8.719h-4.254V36.483h9.123c1.301,0,2.426,0.19,3.375,0.571s1.737,0.917,2.364,1.608
		s1.093,1.518,1.397,2.479S261.43,43.163,261.43,44.323z M257.141,44.411c0-1.277-0.313-2.247-0.94-2.909s-1.573-0.993-2.839-0.993
		h-4.395v8.033h4.518c0.633,0,1.178-0.1,1.635-0.299s0.835-0.48,1.134-0.844s0.521-0.8,0.668-1.31S257.141,45.021,257.141,44.411z"
		/>
	<path fill="#FFFFFF" d="M278.625,61.251l-4.979-9.404h-4.992v9.404h-4.254V36.483h10.143c1.266,0,2.373,0.173,3.322,0.519
		s1.74,0.838,2.373,1.477s1.104,1.412,1.415,2.32s0.466,1.931,0.466,3.067c0,0.926-0.111,1.773-0.335,2.541
		c-0.223,0.768-0.533,1.451-0.932,2.048c-0.399,0.598-0.874,1.099-1.426,1.503c-0.552,0.405-1.149,0.701-1.795,0.888l5.507,10.404
		H278.625z M277.848,44.077c0-1.207-0.325-2.104-0.976-2.689s-1.573-0.879-2.769-0.879h-5.449v7.313h5.555
		c0.633,0,1.178-0.091,1.635-0.272s0.832-0.439,1.125-0.773s0.513-0.729,0.659-1.187S277.848,44.628,277.848,44.077z"/>
	<path fill="#FFFFFF" d="M305.463,48.753c0,1.934-0.234,3.691-0.703,5.273s-1.146,2.936-2.03,4.061s-1.963,1.992-3.234,2.602
		s-2.71,0.914-4.315,0.914c-1.699,0-3.188-0.319-4.465-0.958s-2.344-1.529-3.199-2.672s-1.497-2.499-1.925-4.069
		s-0.642-3.287-0.642-5.15c0-1.934,0.223-3.68,0.668-5.238s1.104-2.886,1.978-3.981s1.945-1.939,3.217-2.531
		s2.733-0.888,4.386-0.888s3.117,0.299,4.395,0.896s2.35,1.447,3.217,2.549s1.526,2.429,1.978,3.981S305.463,46.831,305.463,48.753z
		 M301.122,48.753c0-1.301-0.126-2.476-0.378-3.524s-0.627-1.948-1.125-2.698s-1.116-1.327-1.854-1.731s-1.594-0.606-2.566-0.606
		c-0.996,0-1.863,0.202-2.602,0.606s-1.359,0.981-1.863,1.731s-0.879,1.649-1.125,2.698s-0.369,2.224-0.369,3.524
		c0,1.289,0.126,2.47,0.378,3.542s0.627,1.995,1.125,2.769s1.119,1.377,1.863,1.811s1.603,0.65,2.575,0.65
		c1.043,0,1.937-0.22,2.681-0.659s1.359-1.049,1.846-1.828s0.844-1.705,1.072-2.777S301.122,50.019,301.122,48.753z"/>
</g>
</svg>
