<?xml version="1.0" encoding="iso-8859-1"?>
<!-- Generator: Adobe Illustrator 19.0.0, SVG Export Plug-In . SVG Version: 6.00 Build 0)  -->
<svg version="1.1" id="Capa_1" xmlns="http://www.w3.org/2000/svg" xmlns:xlink="http://www.w3.org/1999/xlink" x="0px" y="0px"
	 viewBox="0 0 512 512" style="enable-background:new 0 0 512 512;" xml:space="preserve">
<g>
	<g>
		<g>
			<rect x="306.4" y="131.859" width="129" height="15"/>
			<rect x="445.4" y="131.859" width="15" height="15"/>
			<rect x="470.4" y="131.859" width="15" height="15"/>
			<rect x="47.917" y="61.239" width="15" height="15"/>
			<rect x="47.917" y="111.239" width="15" height="129"/>
			<rect x="47.917" y="86.239" width="15" height="15"/>
			<rect x="177.4" y="131.859" width="15" height="15"/>
			<rect x="152.4" y="131.859" width="15" height="15"/>
			<rect x="127.4" y="131.859" width="15" height="15"/>
			<rect x="102.4" y="131.859" width="14.999" height="15"/>
			<path d="M15,433.267v-0.019c0.01-17.404,14.172-31.56,31.578-31.56h44.629V120.812H217.28v-15H91.208v-4.232h-15v285.109H46.579
				c-12.176,0-23.271,4.702-31.578,12.378V78.732c0-17.413,14.166-31.58,31.578-31.58h29.629V86.58h15V32.153H46.579
				C20.896,32.153,0,53.049,0,78.732v354.516c0,0.006,0,0.013,0,0.019c0,25.684,20.896,46.579,46.579,46.579h59.175v-15H46.579
				C29.167,464.846,15,450.679,15,433.267z"/>
			<polygon points="232.281,105.812 232.281,120.812 497,120.812 497,341.092 512,341.092 512,105.812 			"/>
			<polygon points="497,464.846 120.753,464.846 120.753,479.846 512,479.846 512,356.092 497,356.092 			"/>
			<rect x="53" y="433.009" width="47.5" height="15"/>
			<path d="M218.67,162.499h-81.55v81.55h81.55V162.499z M203.66,229.039h-51.54v-51.54h51.54V229.039z"/>
			<path d="M245.89,244.05h81.55v-81.551h-81.5L245.89,244.05z M260.89,177.499h51.55v51.54h-51.55V177.499z"/>
			<path d="M436.209,162.55l-81.54-0.05v81.49l81.54,0.05V162.55z M421.209,229.05h-51.54v-51.551h51.54V229.05z"/>
			<rect x="164.62" y="253.33" width="53.55" height="15"/>
			<rect x="144.62" y="277.609" width="73.55" height="15"/>
			<rect x="273.39" y="253.33" width="53.55" height="15"/>
			<rect x="253.39" y="277.609" width="73.55" height="15"/>
			<rect x="382.17" y="253.33" width="53.55" height="15"/>
			<rect x="362.17" y="277.609" width="73.55" height="15"/>
			<path d="M218.67,310.949l-81.55-0.05v81.49l81.55,0.05V310.949z M203.66,377.439h-51.54v-51.54h51.54V377.439z"/>
			<path d="M327.44,392.439v-81.54h-81.5l-0.05,81.54H327.44z M260.89,325.889h51.55v51.55h-51.55V325.889z"/>
			<path d="M436.209,310.949l-81.54-0.05v81.49l81.54,0.05V310.949z M421.209,377.439h-51.54v-51.54h51.54V377.439z"/>
			<rect x="164.62" y="401.729" width="53.55" height="15"/>
			<rect x="144.62" y="426.009" width="73.55" height="15"/>
			<rect x="273.39" y="401.729" width="53.55" height="15"/>
			<rect x="253.39" y="426.009" width="73.55" height="15"/>
			<rect x="382.17" y="401.729" width="53.55" height="15"/>
			<rect x="362.17" y="426.009" width="73.55" height="15"/>
			<rect x="470" y="379.499" width="15" height="70.5"/>
			<rect x="26.17" y="294.109" width="15" height="73.33"/>
		</g>
	</g>
</g>
<g>
</g>
<g>
</g>
<g>
</g>
<g>
</g>
<g>
</g>
<g>
</g>
<g>
</g>
<g>
</g>
<g>
</g>
<g>
</g>
<g>
</g>
<g>
</g>
<g>
</g>
<g>
</g>
<g>
</g>
</svg>
