<?xml version="1.0" encoding="utf-8"?>
<!-- Generator: Adobe Illustrator 16.0.0, SVG Export Plug-In . SVG Version: 6.00 Build 0)  -->
<!DOCTYPE svg PUBLIC "-//W3C//DTD SVG 1.1//EN" "http://www.w3.org/Graphics/SVG/1.1/DTD/svg11.dtd">
<svg version="1.1" id="Capa_1" xmlns="http://www.w3.org/2000/svg" xmlns:xlink="http://www.w3.org/1999/xlink" x="0px" y="0px"
	 width="612px" height="612px" viewBox="0 81.5 612 612" enable-background="new 0 81.5 612 612" xml:space="preserve">
<g>
	<g>
		<g>
			<rect x="366.243" y="232.613" fill="#FFFFFF" width="154.195" height="17.93"/>
			<rect x="532.392" y="232.613" fill="#FFFFFF" width="17.93" height="17.93"/>
			<rect x="562.275" y="232.613" fill="#FFFFFF" width="17.93" height="17.93"/>
			<rect x="57.276" y="148.2" fill="#FFFFFF" width="17.93" height="17.93"/>
			<rect x="57.276" y="207.966" fill="#FFFFFF" width="17.93" height="154.195"/>
			<rect x="57.276" y="178.083" fill="#FFFFFF" width="17.93" height="17.93"/>
			<rect x="212.048" y="232.613" fill="#FFFFFF" width="17.93" height="17.93"/>
			<rect x="182.165" y="232.613" fill="#FFFFFF" width="17.93" height="17.93"/>
			<rect x="152.282" y="232.613" fill="#FFFFFF" width="17.93" height="17.93"/>
			<rect x="122.4" y="232.613" fill="#FFFFFF" width="17.929" height="17.93"/>
			<path fill="#FFFFFF" d="M17.93,592.889v-0.022c0.012-20.803,16.939-37.724,37.745-37.724h53.346V219.408h150.696v-17.93H109.022
				v-5.059h-17.93v340.795H55.676c-14.554,0-27.815,5.62-37.745,14.795v-382.9c0-20.813,16.933-37.748,37.745-37.748h35.416v47.129
				h17.93v-65.057H55.676C24.977,113.433,0,138.41,0,169.109v423.758c0,0.007,0,0.016,0,0.022c0,30.7,24.977,55.677,55.676,55.677
				h70.733v-17.93H55.676C34.864,630.636,17.93,613.703,17.93,592.889z"/>
			<polygon fill="#FFFFFF" points="277.649,201.478 277.649,219.408 594.071,219.408 594.071,482.712 612,482.712 612,201.478 			
				"/>
			<polygon fill="#FFFFFF" points="594.071,630.636 144.337,630.636 144.337,648.566 612,648.566 612,500.641 594.071,500.641 			
				"/>
			<rect x="63.352" y="592.582" fill="#FFFFFF" width="56.777" height="17.93"/>
			<path fill="#FFFFFF" d="M261.379,269.237h-97.478v97.478h97.478V269.237z M243.438,348.773h-61.606v-61.606h61.606V348.773z"/>
			<path fill="#FFFFFF" d="M293.915,366.716h97.478v-97.479h-97.418L293.915,366.716z M311.845,287.167h61.618v61.606h-61.618
				V287.167z"/>
			<path fill="#FFFFFF" d="M521.406,269.298l-97.466-0.06v97.406l97.466,0.06V269.298z M503.476,348.786h-61.606v-61.619h61.606
				V348.786z"/>
			<rect x="196.773" y="377.808" fill="#FFFFFF" width="64.009" height="17.93"/>
			<rect x="172.866" y="406.83" fill="#FFFFFF" width="87.915" height="17.93"/>
			<rect x="326.786" y="377.808" fill="#FFFFFF" width="64.009" height="17.93"/>
			<rect x="302.88" y="406.83" fill="#FFFFFF" width="87.915" height="17.93"/>
			<rect x="456.813" y="377.808" fill="#FFFFFF" width="64.009" height="17.93"/>
			<rect x="432.906" y="406.83" fill="#FFFFFF" width="87.915" height="17.93"/>
			<path fill="#FFFFFF" d="M261.379,446.681l-97.478-0.06v97.406l97.478,0.06V446.681z M243.438,526.158h-61.606v-61.606h61.606
				V526.158z"/>
			<path fill="#FFFFFF" d="M391.393,544.088v-97.466h-97.418l-0.06,97.466H391.393z M311.845,464.54h61.618v61.618h-61.618V464.54z"
				/>
			<path fill="#FFFFFF" d="M521.406,446.681l-97.466-0.06v97.406l97.466,0.06V446.681z M503.476,526.158h-61.606v-61.606h61.606
				V526.158z"/>
			<rect x="196.773" y="555.192" fill="#FFFFFF" width="64.009" height="17.93"/>
			<rect x="172.866" y="584.215" fill="#FFFFFF" width="87.915" height="17.93"/>
			<rect x="326.786" y="555.192" fill="#FFFFFF" width="64.009" height="17.93"/>
			<rect x="302.88" y="584.215" fill="#FFFFFF" width="87.915" height="17.93"/>
			<rect x="456.813" y="555.192" fill="#FFFFFF" width="64.009" height="17.93"/>
			<rect x="432.906" y="584.215" fill="#FFFFFF" width="87.915" height="17.93"/>
			<rect x="561.797" y="528.62" fill="#FFFFFF" width="17.93" height="84.27"/>
			<rect x="31.281" y="426.552" fill="#FFFFFF" width="17.93" height="87.652"/>
		</g>
	</g>
</g>
</svg>
