<?xml version="1.0" encoding="utf-8"?>
<!-- Generator: Adobe Illustrator 16.0.0, SVG Export Plug-In . SVG Version: 6.00 Build 0)  -->
<!DOCTYPE svg PUBLIC "-//W3C//DTD SVG 1.1//EN" "http://www.w3.org/Graphics/SVG/1.1/DTD/svg11.dtd">
<svg version="1.1" id="Layer_1" xmlns="http://www.w3.org/2000/svg" xmlns:xlink="http://www.w3.org/1999/xlink" x="0px" y="0px"
	 width="612px" height="612px" viewBox="0 75.5 612 612" enable-background="new 0 75.5 612 612" xml:space="preserve">
<path fill="#FFFFFF" d="M306,551.734H59.766c-19.774,0-35.859-16.085-35.859-35.859V152.5c0-19.773,16.085-35.859,35.859-35.859
	h427.922c19.773,0,35.859,16.086,35.859,35.859V382.56c0,6.603,5.351,11.953,11.953,11.953c6.602,0,11.953-5.351,11.953-11.953
	V152.5c0-32.955-26.811-59.766-59.766-59.766H59.766C26.811,92.734,0,119.545,0,152.5v363.375c0,32.956,26.811,59.766,59.766,59.766
	H306c6.602,0,11.953-5.351,11.953-11.953C317.953,557.086,312.602,551.734,306,551.734z"/>
<path fill="#FFFFFF" d="M543.951,436.672c2.222-2.223,3.502-5.304,3.502-8.446c0-3.161-1.28-6.229-3.502-8.451
	c-2.223-2.228-5.31-3.502-8.451-3.502c-3.143,0-6.229,1.274-8.452,3.502c-2.222,2.223-3.501,5.304-3.501,8.451
	c0,3.143,1.279,6.224,3.501,8.446c2.223,2.223,5.31,3.507,8.452,3.507C538.642,440.174,541.729,438.894,543.951,436.672z"/>
<path fill="#FFFFFF" d="M600.047,551.734h-42.695c-4.936-13.914-18.225-23.906-33.805-23.906c-15.582,0-28.87,9.992-33.806,23.906
	H354.503c-6.603,0-11.953,5.352-11.953,11.953c0,6.603,5.351,11.953,11.953,11.953h135.238
	c4.936,13.915,18.224,23.906,33.806,23.906c15.58,0,28.869-9.991,33.805-23.906h42.695c6.602,0,11.953-5.351,11.953-11.953
	C612,557.086,606.649,551.734,600.047,551.734z M523.547,575.64c-6.594,0-11.953-5.359-11.953-11.953
	c0-6.593,5.359-11.953,11.953-11.953c6.593,0,11.953,5.36,11.953,11.953C535.5,570.281,530.14,575.64,523.547,575.64z"/>
<path fill="#FFFFFF" d="M600.047,624.574H464.804c-4.936-13.909-18.22-23.906-33.806-23.906c-15.581,0-28.864,9.997-33.8,23.906
	h-42.7c-6.598,0-11.953,5.351-11.953,11.953s5.355,11.953,11.953,11.953h42.7c4.936,13.914,18.219,23.906,33.8,23.906
	c15.586,0,28.87-9.992,33.806-23.906h135.243c6.602,0,11.953-5.351,11.953-11.953S606.649,624.574,600.047,624.574z M431.003,648.48
	c-6.593,0-11.953-5.36-11.953-11.953c0-6.588,5.36-11.953,11.953-11.953c6.588,0,11.953,5.365,11.953,11.953
	C442.956,643.12,437.591,648.48,431.003,648.48z"/>
<path fill="#FFFFFF" d="M431.003,454.989c-15.586,0-28.869,9.997-33.805,23.906h-42.695c-6.603,0-11.953,5.351-11.953,11.953
	s5.351,11.953,11.953,11.953h42.695c4.936,13.914,18.219,23.906,33.805,23.906c15.581,0,28.87-9.992,33.801-23.906h135.243
	c6.602,0,11.953-5.351,11.953-11.953s-5.352-11.953-11.953-11.953H464.804C459.873,464.986,446.584,454.989,431.003,454.989z
	 M431.003,502.802c-6.593,0-11.953-5.36-11.953-11.953c0-6.588,5.36-11.953,11.953-11.953c6.588,0,11.953,5.365,11.953,11.953
	C442.956,497.441,437.591,502.802,431.003,502.802z"/>
<path fill="#FFFFFF" d="M407.639,341.92c0-73.839-60.074-133.912-133.912-133.912c-73.839,0-133.913,60.073-133.913,133.912
	s60.074,133.917,133.913,133.917C347.565,475.837,407.639,415.759,407.639,341.92z M273.727,451.93
	c-60.657,0-110.007-49.354-110.007-110.011s49.35-110.006,110.007-110.006s110.006,49.349,110.006,110.006
	S334.384,451.93,273.727,451.93z"/>
<path fill="#FFFFFF" d="M331.33,318.551l-64.846-41.565c-8.129-5.211-18.443-5.57-26.918-0.938
	c-8.479,4.637-13.741,13.513-13.741,23.174v83.13c0,9.655,5.262,18.536,13.736,23.173c3.96,2.162,8.321,3.236,12.673,3.236
	c4.963,0,9.917-1.396,14.25-4.175l64.851-41.565c7.61-4.879,12.153-13.19,12.153-22.234S338.946,323.429,331.33,318.551z
	 M318.434,342.891l-64.851,41.564c-0.831,0.532-1.686,0.561-2.549,0.089c-0.868-0.472-1.303-1.209-1.303-2.194v-83.13
	c0-0.985,0.438-1.724,1.303-2.199c0.401-0.22,0.808-0.332,1.209-0.332c0.453,0,0.901,0.141,1.34,0.425l64.851,41.565
	c0.948,0.606,1.148,1.479,1.148,2.105S319.382,342.279,318.434,342.891z"/>
<path fill="#FFFFFF" d="M57.375,308.12v116.543c0,6.602,5.351,11.953,11.953,11.953c6.602,0,11.953-5.352,11.953-11.953V308.12
	c0-6.598-5.352-11.953-11.953-11.953C62.726,296.167,57.375,301.522,57.375,308.12z"/>
<path fill="#FFFFFF" d="M77.78,250.73c-2.223-2.236-5.309-3.502-8.451-3.502s-6.229,1.266-8.451,3.502
	c-2.223,2.209-3.502,5.295-3.502,8.451c0,3.143,1.279,6.229,3.502,8.447c2.223,2.227,5.309,3.506,8.451,3.506
	s6.229-1.279,8.451-3.506c2.223-2.232,3.502-5.305,3.502-8.447C81.281,256.025,80.002,252.953,77.78,250.73z"/>
</svg>
